<svg width="64" height="64" viewBox="0 0 64 64" xmlns="http://www.w3.org/2000/svg">
  <defs>
    <linearGradient id="sen-favicon" x1="0%" y1="0%" x2="100%" y2="100%">
      <stop offset="0%" stop-color="#00C6FF"/>
      <stop offset="100%" stop-color="#7C3AED"/>
    </linearGradient>
  </defs>
  <rect x="4" y="4" width="56" height="56" rx="16" fill="#050505" stroke="url(#sen-favicon)" stroke-width="2"/>
  <path d="M18 42c4 4 9.5 6.4 16 6.4 10.8 0 17.7-5.5 17.7-13.9 0-6.7-4.7-10.7-14.8-12.5l-5.9-1c-4.1-.7-5.8-1.9-5.8-4.1 0-2.7 2.7-4.3 6.8-4.3 4.3 0 7.9 1.5 10.5 4.5l6.5-7.2c-4.1-4.9-10-7.4-17.2-7.4-9.9 0-17 5.3-17 13.1 0 7.8 5.1 10.8 14.3 12.3l5.9 1c4.5.8 6.5 2 6.5 4.2 0 2.9-3 4.8-7.5 4.8-4.8 0-9.4-1.8-12.6-5.2L18 42z" fill="url(#sen-favicon)"/>
</svg>
