<svg width="64" height="64" viewBox="0 0 64 64" xmlns="http://www.w3.org/2000/svg">
  <defs>
    <radialGradient id="teranga-glow" cx="30%" cy="30%" r="70%">
      <stop offset="0%" stop-color="#FF6B6B"/>
      <stop offset="40%" stop-color="#FF2A47"/>
      <stop offset="100%" stop-color="#C4102F"/>
    </radialGradient>
    <linearGradient id="teranga-accent" x1="0%" y1="0%" x2="100%" y2="100%">
      <stop offset="0%" stop-color="#FFD166"/>
      <stop offset="100%" stop-color="#FF6F91"/>
    </linearGradient>
  </defs>
  <rect width="64" height="64" rx="20" fill="#050505"/>
  <rect x="2" y="2" width="60" height="60" rx="18" stroke="url(#teranga-accent)" stroke-width="2" fill="none"/>
  <circle cx="32" cy="32" r="20" fill="url(#teranga-glow)"/>
  <path d="M23.5 40.5V23.2h8.7c4.6 0 7.5 2.5 7.5 6.5 0 3-1.9 5-4.8 5.7l6.2 5.1h-5.9l-5-4.4h-2.1v4.4h-4.6zm4.6-8.1h3.5c1.9 0 3-0.9 3-2.5 0-1.6-1.1-2.4-3-2.4h-3.5v4.9z" fill="#FFFFFF" />
</svg>
