<svg width="600" height="360" viewBox="0 0 600 360" xmlns="http://www.w3.org/2000/svg">
  <defs>
    <linearGradient id="room" x1="0%" y1="0%" x2="100%" y2="100%">
      <stop offset="0%" stop-color="#0F0F0F"/>
      <stop offset="100%" stop-color="#1B1B1B"/>
    </linearGradient>
    <linearGradient id="glow" x1="0%" y1="0%" x2="100%" y2="0%">
      <stop offset="0%" stop-color="#1DB954" stop-opacity="0.1"/>
      <stop offset="100%" stop-color="#1DB954" stop-opacity="0.4"/>
    </linearGradient>
  </defs>
  <rect width="600" height="360" rx="32" fill="url(#room)"/>
  <rect x="150" y="40" width="300" height="180" rx="18" fill="#050505" stroke="#1DB954" stroke-width="3"/>
  <rect x="158" y="48" width="284" height="164" rx="14" fill="url(#glow)"/>
  <text x="300" y="120" font-family="Poppins, Arial" font-size="28" fill="#FFFFFF" text-anchor="middle">SÉRIE EN FAMILLE</text>

  <!-- Sofa -->
  <rect x="110" y="220" width="380" height="80" rx="30" fill="#181818" stroke="#0A0A0A" stroke-width="2"/>

  <!-- Family silhouettes -->
  <circle cx="210" cy="210" r="32" fill="#36231A"/>
  <rect x="180" y="230" width="60" height="70" rx="26" fill="#2B1A12"/>

  <circle cx="270" cy="215" r="28" fill="#4F2B1A"/>
  <rect x="245" y="235" width="50" height="65" rx="23" fill="#3A2014"/>

  <circle cx="330" cy="212" r="30" fill="#2E1A0F"/>
  <rect x="300" y="232" width="60" height="70" rx="24" fill="#221109"/>

  <circle cx="380" cy="220" r="24" fill="#5C3B23"/>
  <rect x="360" y="238" width="40" height="58" rx="18" fill="#472A18"/>

  <!-- Accent light -->
  <ellipse cx="300" cy="310" rx="220" ry="25" fill="#000000" opacity="0.6"/>
  <text x="300" y="330" font-family="Poppins, Arial" font-size="16" fill="#B3B3B3" text-anchor="middle">
    Famille sénégalaise profitant de Netflix & IPTV via TerangaPremium
  </text>
</svg>
