<svg width="120" height="120" viewBox="0 0 120 120" xmlns="http://www.w3.org/2000/svg">
  <defs>
    <linearGradient id="sen-glow" x1="0%" y1="0%" x2="100%" y2="100%">
      <stop offset="0%" stop-color="#00C6FF"/>
      <stop offset="100%" stop-color="#7C3AED"/>
    </linearGradient>
    <filter id="shadow" x="-40%" y="-40%" width="180%" height="180%">
      <feDropShadow dx="0" dy="0" stdDeviation="6" flood-color="#00C6FF" flood-opacity="0.5"/>
    </filter>
  </defs>
  <rect x="10" y="10" width="100" height="100" rx="24" fill="#0D0D0D" stroke="url(#sen-glow)" stroke-width="2" filter="url(#shadow)"/>
  <path d="M35 74c4.5 4.8 11 7.4 18.5 7.4 12.4 0 20.4-6.4 20.4-16.1 0-7.8-5.4-12.4-17.1-14.5l-6.7-1.2c-4.8-.9-6.8-2.2-6.8-4.7 0-3.2 3.1-5.2 7.9-5.2 5.1 0 9.3 1.8 12.3 5.2l7.6-8.6c-4.7-5.8-11.7-8.8-20.1-8.8-11.5 0-19.7 6.3-19.7 15.6 0 9.3 6 12.8 16.4 14.7l6.8 1.2c5.2 1 7.5 2.4 7.5 5 0 3.4-3.4 5.6-8.8 5.6-5.6 0-10.9-2.1-14.7-6.1L35 74z" fill="url(#sen-glow)"/>
  <circle cx="87" cy="33" r="6" fill="#00C6FF"/>
</svg>
