<svg width="120" height="120" viewBox="0 0 120 120" xmlns="http://www.w3.org/2000/svg">
  <defs>
    <radialGradient id="canva-gradient" cx="50%" cy="35%" r="70%">
      <stop offset="0%" stop-color="#3AD3D1"/>
      <stop offset="100%" stop-color="#6143FF"/>
    </radialGradient>
  </defs>
  <rect width="120" height="120" rx="28" fill="url(#canva-gradient)"/>
  <path d="M60.3 38c-10.3 0-19.1 8.8-19.1 21.7 0 13.8 8.9 22.3 19.4 22.3 6.1 0 10.2-2.4 13.2-5.6 0.7-0.8 0.6-1.9-0.1-2.6l-2.7-2.3c-0.8-0.7-1.9-0.6-2.6 0.2-2.1 2.4-4.7 3.8-7.3 3.8-5.9 0-10.4-4.7-10.4-15.5 0-9.8 4.1-15.3 10-15.3 3.3 0 5.8 1.7 7.5 4.4 0.5 0.9 1.6 1.2 2.5 0.7l3.5-2c0.9-0.5 1.3-1.6 0.8-2.5-2.8-5.5-7.7-8.9-14.7-8.9z" fill="#FFFFFF" fill-rule="evenodd"/>
</svg>
