<svg width="120" height="120" viewBox="0 0 120 120" xmlns="http://www.w3.org/2000/svg">
  <defs>
    <linearGradient id="cloudplus-gradient" x1="15%" y1="15%" x2="85%" y2="85%">
      <stop offset="0%" stop-color="#4D9FFF"/>
      <stop offset="100%" stop-color="#34C759"/>
    </linearGradient>
  </defs>
  <rect width="120" height="120" rx="28" fill="url(#cloudplus-gradient)"/>
  <path d="M54 84h20c8.8 0 16-7.2 16-16 0-7.4-5-13.6-11.8-15.4C77.2 43.7 69.8 38 61 38c-9.9 0-18 7.6-19.2 17.3C35.6 56.8 30 63 30 70c0 7.7 6.3 14 14 14h10zm6-12h-6c-3.3 0-6-2.7-6-6 0-3 2.2-5.5 5.1-5.9l1.9-0.3 0.3-1.9C56.1 53.4 58.8 51 62 51c4.1 0 7.4 3.3 7.4 7.4 0 0.6-0.1 1.2-0.2 1.8l-0.6 3.1 3.1 0.6c1.5 0.3 2.7 1.7 2.7 3.2 0 1.8-1.4 3.2-3.2 3.2H60zm22-10h6v6h6v6h-6v6h-6v-6h-6v-6h6v-6z" fill="#FFFFFF" fill-rule="evenodd"/>
</svg>
