<svg width="120" height="120" viewBox="0 0 120 120" xmlns="http://www.w3.org/2000/svg">
  <defs>
    <linearGradient id="faceapp-spectrum" x1="0%" y1="0%" x2="100%" y2="100%">
      <stop offset="0%" stop-color="#FF6A88"/>
      <stop offset="50%" stop-color="#FF9A8B"/>
      <stop offset="100%" stop-color="#FFD07F"/>
    </linearGradient>
  </defs>
  <rect width="120" height="120" rx="32" fill="url(#faceapp-spectrum)"/>
  <path d="M60 32c-13.3 0-24 10.7-24 24v8.2c0 5 1.9 9.7 5.3 13.3L54 92c1.5 1.6 3.6 2.6 5.8 2.6s4.3-1 5.8-2.6l12.7-14.5c3.4-3.6 5.3-8.3 5.3-13.3V56c0-13.3-10.7-24-24-24zm0 12c6.7 0 12 5.3 12 12s-5.3 12-12 12-12-5.3-12-12 5.3-12 12-12z" fill="#FFFFFF" fill-rule="evenodd"/>
</svg>
