<svg xmlns="http://www.w3.org/2000/svg" viewBox="0 0 200 60" fill="currentColor">
  <path d="M47.5 25.9c-5.2 2-10.6 3.2-15.4 3.2-4.7 0-4.7-2.4-4.7-3.7V5.8c0-1.2 0-3.7 4.7-3.7 4.8 0 10.2 1.2 15.4 3.2v5.2c-4.5-1.9-9.4-3-12.7-3-1.5 0-1.9.5-1.9 1.2v17.9c0 .7.4 1.2 1.9 1.2 3.3 0 8.2-1.1 12.7-3v5.1zm16.4-6.4c0 3.2-2.5 5-6.8 5-3 0-6-.7-8.5-1.9v-5.2c2.5 1.3 5.5 2.1 8.5 2.1 1.7 0 2.7-.7 2.7-1.6 0-2.8-11.4-2.7-11.4-9.5 0-3.2 2.5-5 6.8-5 3 0 6 .7 8.5 1.9v5.2c-2.5-1.3-5.5-2.1-8.5-2.1-1.7 0-2.7.7-2.7 1.6 0 2.8 11.4 2.7 11.4 9.5z"/>
</svg>
