<svg xmlns="http://www.w3.org/2000/svg" viewBox="0 0 50 30">
  <!-- Blue canton -->
  <rect width="20" height="18" fill="#3C3B6E"/>
  <!-- White stars -->
  <circle cx="2.5" cy="2.5" r="1" fill="white"/>
  <circle cx="7" cy="2.5" r="1" fill="white"/>
  <circle cx="11.5" cy="2.5" r="1" fill="white"/>
  <circle cx="16" cy="2.5" r="1" fill="white"/>
  <circle cx="4.75" cy="5.5" r="1" fill="white"/>
  <circle cx="9.25" cy="5.5" r="1" fill="white"/>
  <circle cx="13.75" cy="5.5" r="1" fill="white"/>
  <circle cx="2.5" cy="8.5" r="1" fill="white"/>
  <circle cx="7" cy="8.5" r="1" fill="white"/>
  <circle cx="11.5" cy="8.5" r="1" fill="white"/>
  <circle cx="16" cy="8.5" r="1" fill="white"/>
  <circle cx="4.75" cy="11.5" r="1" fill="white"/>
  <circle cx="9.25" cy="11.5" r="1" fill="white"/>
  <circle cx="13.75" cy="11.5" r="1" fill="white"/>
  <circle cx="2.5" cy="14.5" r="1" fill="white"/>
  <circle cx="7" cy="14.5" r="1" fill="white"/>
  <circle cx="11.5" cy="14.5" r="1" fill="white"/>
  <circle cx="16" cy="14.5" r="1" fill="white"/>
  <!-- Red and white stripes -->
  <rect x="20" y="0" width="30" height="2.31" fill="#B22234"/>
  <rect x="20" y="2.31" width="30" height="2.31" fill="white"/>
  <rect x="20" y="4.62" width="30" height="2.31" fill="#B22234"/>
  <rect x="20" y="6.93" width="30" height="2.31" fill="white"/>
  <rect x="20" y="9.24" width="30" height="2.31" fill="#B22234"/>
  <rect x="20" y="11.55" width="30" height="2.31" fill="white"/>
  <rect x="20" y="13.86" width="30" height="2.31" fill="#B22234"/>
  <rect x="20" y="16.17" width="30" height="2.31" fill="white"/>
  <rect x="0" y="18" width="50" height="2.4" fill="#B22234"/>
  <rect x="0" y="20.4" width="50" height="2.4" fill="white"/>
  <rect x="0" y="22.8" width="50" height="2.4" fill="#B22234"/>
  <rect x="0" y="25.2" width="50" height="2.4" fill="white"/>
  <rect x="0" y="27.6" width="50" height="2.4" fill="#B22234"/>
</svg>

