<svg width="120" height="120" viewBox="0 0 120 120" xmlns="http://www.w3.org/2000/svg">
  <defs>
    <linearGradient id="scribd-gradient" x1="0%" y1="0%" x2="100%" y2="100%">
      <stop offset="0%" stop-color="#0C6CF5"/>
      <stop offset="100%" stop-color="#39A7FF"/>
    </linearGradient>
  </defs>
  <rect width="120" height="120" rx="24" fill="url(#scribd-gradient)"/>
  <path d="M76.7 36.5c-4.7-3.2-9.7-4.7-15.2-4.7-11.6 0-21.4 6.6-21.4 17.8 0 7.5 4.1 13 11.4 16.2l12.1 5.1c1.7 0.7 2.5 1.7 2.5 3.2 0 2.3-2.1 3.8-5.2 3.8-3.5 0-7.4-1.4-10.7-4.3-0.8-0.7-1.9-0.6-2.7 0.1l-4 3.9c-0.9 0.9-0.9 2.3 0 3.1 4.5 4.1 10.6 6.6 17.2 6.6 11 0 19-6 19-16 0-7.9-4.3-12.9-11.7-15.8L56 48.8c-2.7-1.1-3.7-2.4-3.7-4.2 0-2.7 2.6-4.3 6.2-4.3 3.4 0 6.7 1.2 9.8 3.3 0.8 0.6 1.9 0.5 2.6-0.3l3.6-4c0.8-0.9 0.7-2.2-0.4-3z" fill="#FFFFFF" fill-rule="evenodd"/>
</svg>
